<svg width="55" height="44" viewBox="0 0 55 44" fill="none" xmlns="http://www.w3.org/2000/svg">
<path d="M41.2737 43.4031C41.0252 43.1464 41.09 42.448 41.2205 41.8171C41.261 41.6199 41.6932 41.5856 41.7376 41.44C41.8216 41.1503 41.551 40.988 41.656 40.684C41.6921 40.5808 42.3632 40.4687 42.3857 40.3635C42.5037 39.7876 42.173 39.3824 42.1126 38.8362C41.8434 36.4644 41.0197 34.1821 40.0117 31.9495C39.8598 31.6168 39.7057 31.2856 39.5493 30.9542C39.1417 30.0887 39.0285 28.7765 38.2543 28.1048C38.1637 28.0271 37.7131 28.4135 37.6606 28.4226C36.8545 28.5585 37.9034 27.9848 37.9076 27.7103C37.9214 26.6236 37.3779 25.7726 36.679 25.2205C36.3805 24.9873 35.6655 25.9844 35.9698 25.2967C35.9897 25.2494 36.5449 24.9454 36.5372 24.8248C36.5189 24.5516 36.1645 24.2749 36.0951 24.1056C35.9623 23.775 35.9222 23.7344 35.726 23.476C35.4627 23.1205 35.3695 22.5121 34.9544 22.2344C34.8646 22.1766 34.4568 22.69 34.2696 22.6358C34.0819 22.5803 33.8509 22.2214 33.8713 22.0122C33.8935 21.8047 34.317 21.524 34.3885 21.4296C34.9929 20.6333 33.6384 21.1329 33.5726 21.1088C32.3775 20.603 32.2784 19.348 31.5163 18.5352C31.2622 18.2657 30.9639 18.0229 30.6613 17.7824C30.312 17.5137 29.9675 17.2751 29.6938 16.9958C29.1217 16.4097 28.7958 15.6997 28.1122 15.2992C28.0418 15.2577 27.6926 15.9331 27.6092 15.8863C26.7155 15.3873 25.9287 14.8801 25.1345 14.0293C25.0537 13.9431 25.4193 13.3732 25.3488 13.2489C24.9446 12.5005 24.0703 10.8962 22.9941 13.6129C22.572 13.395 22.03 13.1665 21.6907 12.515C21.4699 12.0955 21.8757 11.4338 21.4629 11.6749C21.3702 11.7287 21.3692 12.3697 21.2396 12.4037C20.6963 12.5466 20.1605 12.2584 19.5873 12.5057C19.576 12.5107 19.5652 12.5206 19.5551 12.5344C19.4572 12.6623 19.4117 13.1312 19.3695 13.2181C18.9755 13.9959 18.7264 12.5769 18.6503 12.4647C18.0304 11.6207 17.4604 11.8238 16.7927 11.6982C16.6392 11.6689 16.7005 12.4494 16.5485 12.4482C15.7578 12.4312 14.9724 12.2381 14.2783 11.7872C14.1241 11.6851 14.3776 11.0689 14.3088 10.9874C14.0013 10.6351 13.7387 11.8331 13.4425 11.5199C13.3804 11.4555 13.5042 10.9132 13.5005 10.851C13.4434 9.87454 13.0612 11.1874 13.006 11.2093C12.2899 11.5148 12.0774 10.0537 11.4117 10.1624C11.3323 10.177 11.4057 10.896 11.1891 10.8945C9.74654 10.889 8.29427 10.5169 6.95247 9.82634C6.74355 9.71998 6.94737 9.20945 6.94 9.14346C6.80818 8.11096 6.53859 9.45353 6.46446 9.49847C5.87871 9.8173 5.43302 8.64022 4.94921 10.2332C4.7732 10.1785 4.59649 10.1332 4.41996 10.0957C4.0824 10.0353 3.78793 9.99087 3.53067 9.95611C3.36209 9.93586 3.1798 9.91556 3.02954 9.89758C2.94875 9.88802 2.89315 9.8811 2.79703 9.86935C2.67262 9.85428 2.55761 9.83897 2.43033 9.81775C2.36622 9.80695 2.29888 9.79472 2.21808 9.7772C2.14668 9.75832 1.97246 9.73541 1.62492 9.58732C1.44075 9.49414 1.17739 9.41247 0.718565 8.94279C0.49809 8.70353 0.211962 8.31462 0.0712254 7.7298C-0.0783165 7.15138 0.0200243 6.43521 0.250742 5.96847C0.664498 5.16719 0.99122 5.02283 1.23125 4.8409C1.47046 4.68779 1.62695 4.62579 1.75079 4.57682C1.99363 4.48626 2.11731 4.46326 2.22627 4.43934C2.4702 4.39269 2.46983 4.39873 2.53976 4.38837C2.75669 4.36061 3.01381 4.34373 3.13281 4.33672C3.28378 4.32777 3.45561 4.32023 3.62576 4.3154C3.76077 4.31195 3.90422 4.31021 4.05629 4.31086C5.24138 4.31882 6.37424 4.48227 7.52313 5.15457C7.55575 5.17147 7.49565 5.84161 7.56063 5.87244C8.28192 6.25128 8.14867 5.20929 8.66277 3.9387C8.80133 3.61974 9.15717 5.1613 9.18835 5.27443C9.30383 5.69111 9.16974 6.68701 9.20894 6.76787C9.53373 7.4032 9.51359 4.10482 9.97836 4.1096C9.99285 4.11529 9.92386 4.72144 9.96211 4.7823C10.0805 4.97333 10.2062 4.73382 10.322 4.94445C10.5753 5.43169 10.6406 7.03518 11.0603 6.10951C11.1144 5.98943 11.0652 4.11745 11.477 4.2133C11.6492 4.25307 12.3573 4.23534 12.5577 4.36128C12.7565 4.48684 12.6046 5.0864 12.6184 5.11282C13.1436 5.92217 12.9301 6.24779 13.1746 7.43414C13.42 8.61625 13.4112 5.81111 13.5294 5.50102C13.6462 5.19175 14.0226 5.85968 14.1136 6.09098C14.2043 6.32231 14.0727 6.70185 14.1553 6.83363C14.7041 7.69516 14.447 5.44949 14.6502 5.01011C15.1382 3.97021 15.4121 6.05944 15.8128 6.27668C15.9212 6.33537 15.8471 5.85899 15.9469 5.81804C16.3415 5.66223 16.5609 6.31925 17.0203 5.74108C17.0954 5.64684 17.5024 4.41121 17.699 5.3374C17.7265 5.47092 17.6125 5.98496 17.7739 6.10763C18.0146 6.29162 18.4587 6.42369 18.7307 6.26236C18.9326 6.14301 18.7452 5.27994 18.9811 5.55599C19.0858 5.67926 18.8597 6.16911 19.0579 6.35909C19.2549 6.54884 19.7808 6.55167 19.9816 6.54439C20.1819 6.53661 20.1048 5.88431 20.123 5.84152C20.2331 5.59661 20.6339 5.30422 20.6679 5.30682C22.3852 5.31673 23.9045 6.50502 25.589 6.27269C25.7232 6.25561 25.6882 5.56781 25.7093 5.55818C26.1846 5.30853 25.686 7.09077 25.949 7.72159C26.0151 6.33641 26.1803 6.60121 26.5057 6.47593C26.6625 6.41449 26.6257 5.87281 26.6441 5.81921C26.9379 5.02597 27.0021 6.08858 27.0261 6.30689C27.1085 7.10947 27.3558 6.19173 27.4107 6.72852C27.4645 7.26128 27.1611 8.01597 27.4626 8.03364C27.5932 7.54744 27.4871 6.23544 27.7375 6.04763C28.6704 5.33291 30.212 6.52408 30.9029 6.72376C31.5673 6.91663 31.8365 6.86421 32.2123 7.10184C32.8854 7.53476 32.7644 6.54207 33.3225 6.18964C33.881 5.84102 33.2243 8.12912 33.2011 8.64168C33.1717 9.1533 33.3335 8.65074 33.3577 8.93982C33.3799 9.2285 33.1569 9.53835 33.309 9.67408C33.4382 9.80396 34.144 9.02677 34.3204 8.52239C34.7044 7.45403 34.734 6.24469 35.1518 6.77035C35.1743 6.80119 34.9366 7.38396 35.0291 7.47116C35.7531 8.09192 36.4964 8.34393 37.1785 9.12279C37.2509 9.22512 37.3181 9.33166 37.3787 9.4434C37.4424 9.56369 36.9442 10.0567 36.9739 10.1313C37.2582 10.9059 37.7645 9.8245 38.9376 9.11245C37.7495 10.3699 37.2374 11.3088 37.5874 11.651C37.8009 11.8639 38.2871 11.2868 38.8149 11.0629C38.9759 10.9971 38.7654 11.524 39.0505 11.3101C39.9906 10.6201 40.7798 9.55599 40.8278 10.3779C40.8276 10.4146 40.2971 10.7727 40.3302 10.8676C40.5299 11.4779 41.5039 10.752 42.0404 11.1965C42.4635 11.5483 42.392 12.7254 42.5934 13.2592C40.9678 14.3173 41.6047 14.4843 42.8553 13.9648C42.9999 14.3013 43.2653 14.5984 43.2789 14.9911C43.2839 15.1256 42.7582 15.3388 42.7132 15.3822C41.9998 16.0512 43.2043 15.5375 43.2873 15.5808C44.1296 16.0673 43.5713 17.1221 44.7851 17.3709C44.8285 17.3792 46.0482 16.8033 45.2686 17.4399C45.2143 17.4825 44.5513 17.5335 44.6762 17.8814C44.8016 18.2301 44.4656 19.1678 45.2493 19.3362C45.4385 19.3778 46.5537 19.1597 45.901 19.7641C45.8122 19.8456 45.4509 19.9878 45.2802 20.127C44.7375 20.5729 45.9906 20.0321 45.0397 20.7159C44.0886 21.3989 43.4898 22.1349 44.4359 22.2243C44.4642 22.2284 45.4775 21.8368 45.5359 21.9848C45.6288 22.223 45.5998 22.6474 45.7333 22.8779C45.7973 22.9877 46.3472 22.5954 46.3685 22.6089C46.3767 22.6151 46.3848 22.6215 46.3928 22.6278C47.1205 23.2393 46.8667 24.0852 46.957 25.0222C46.9709 25.19 48.0056 25.3569 47.4239 25.9063C46.78 26.4917 43.5453 27.159 44.4965 27.6062C44.8685 27.7634 49.0278 27.1424 47.0587 28.2327C47.837 29.234 46.9177 30.4617 47.8378 31.4797C47.8787 31.5255 49.0559 31.5248 49.0573 31.6499C49.0571 31.8351 48.5309 32.0083 48.5129 32.1418C48.4236 32.7027 48.95 33.1353 48.9473 33.6639C48.9475 33.8643 48.3799 33.8702 48.3805 34.11C48.3809 34.2165 48.5309 34.2871 48.6699 34.3647C48.8471 34.4559 49.007 34.5512 48.8472 34.764C48.6264 35.0483 47.2026 35.6327 47.118 36.0243C48.5727 35.6761 48.5963 35.9055 49.0829 36.1802C49.177 36.2322 49.6563 36.0138 49.7266 36.0307C50.0228 36.0932 49.6452 36.3396 49.9638 36.3865C50.0404 36.3979 50.5302 36.2531 50.6202 36.2534C51.4026 36.2459 50.4165 36.9375 50.2474 37.0641C49.6008 37.535 50.2697 37.4426 50.0461 37.7187C49.8233 37.9966 49.3769 37.8393 49.2765 38.1123C49.07 38.6803 49.3451 39.2278 49.4747 39.6849C49.5294 39.8663 50.134 39.5261 50.1569 39.547C50.2255 39.6225 50.2462 39.7136 50.2562 39.8068C50.2504 40.1069 50.1106 40.3909 51.1615 40.4143C47.7237 41.1732 51.5296 40.6099 50.9164 41.2514C50.8667 41.3 49.2378 41.6308 48.968 41.4838C48.6984 41.3359 49.175 40.9935 48.767 40.82C48.6704 40.7705 47.0896 40.7164 46.9928 40.7131C46.4509 40.6313 47.5172 40.4005 48.2257 40.2179L48.2916 40.4639C48.5715 40.3527 48.7959 40.2694 48.8319 40.2518C50.1618 39.5913 48.4481 39.7568 48.3057 39.6981C47.6521 39.424 47.8518 38.9288 47.3642 38.6629C47.0481 38.4875 45.4953 38.9677 45.4745 38.7427C45.4019 37.975 47.507 37.1119 45.4222 36.9451C44.9776 36.9021 43.296 37.5077 44.5028 36.5792C44.577 36.5147 45.7219 35.8091 44.8807 35.7307C44.7744 35.72 44.2678 35.8271 44.2162 35.7925C43.95 35.6057 44.1256 35.39 44.0858 35.1668C44.0839 35.1323 44.0599 35.0307 44.0592 34.9962C44.0527 34.9493 44.0313 34.9019 43.9835 34.8537C43.7526 34.6219 43.4196 34.352 43.5555 34.0408C43.6366 33.8535 44.5636 33.5064 44.7869 33.3936C45.4304 33.0718 44.2921 32.9745 45.0894 32.7234C45.8903 32.4687 47.1746 32.5822 47.6529 32.1303C46.3184 32.299 44.9464 32.455 43.6034 32.6178C43.5401 31.8111 43.8568 30.9878 43.6628 30.2583C43.6375 30.1689 42.9435 30.3923 42.8983 30.3018C42.711 29.9251 43.1453 29.4776 42.8533 29.127C42.6244 28.8562 41.8016 28.7298 41.5371 28.506C42.9684 27.9086 42.33 27.6057 42.3572 27.2644C42.3655 27.1418 42.7548 27.0102 42.8523 26.8858C43.2072 26.4166 41.986 27.0361 41.7576 27.0371C40.7886 27.0693 43.6297 25.8775 43.3663 25.4728C43.3506 25.4439 41.7464 25.8875 41.6419 25.908C40.9446 25.9995 42.1388 25.6234 42.1814 25.4366C42.2265 25.2303 42.3355 25.0196 42.2875 24.8688C42.2365 24.7337 42.1175 24.6247 41.8619 24.5539C41.6742 24.5052 40.6184 24.6975 41.2007 24.1032C41.277 24.0255 41.7664 23.7909 41.7821 23.7525C42.029 23.0796 40.5104 23.8515 39.8695 23.8666C39.2284 23.8809 40.0872 22.9726 40.3523 22.7453C41.0355 22.1524 40.7632 22.7272 40.8458 22.6997C41.8234 22.3627 41.5287 22.1713 41.5027 21.9274C42.9795 21.1449 42.7464 20.9052 41.4697 21.6776C41.3305 21.7624 41.55 21.8518 41.5027 21.9274C39.9476 22.4851 39.6013 22.2637 40.7976 21.2329C41.3583 20.75 42.182 20.5233 41.6635 20.1761C41.429 20.0191 40.4454 20.6235 40.0687 20.5746C39.2101 20.4646 39.8792 19.4202 39.4993 19.0667C39.3621 18.9399 38.887 19.3874 38.7746 19.3121C38.4758 19.1159 38.7589 18.6478 38.3961 18.4945C38.3627 18.4814 37.8201 18.8618 37.7667 18.7837C37.3522 18.2024 37.4091 17.4711 37.038 16.8812C36.8581 16.5936 36.2323 16.3328 36.1021 16.0426C35.8812 15.5406 36.1691 14.406 35.6776 14.2416C35.3676 14.1413 34.952 14.6604 34.5635 14.9096C33.8318 15.4122 34.6122 14.0287 34.7074 13.796C34.71 13.7869 34.9866 13.8159 35.1092 13.4768C35.5017 12.8856 34.7097 13.794 34.7074 13.796C34.7834 13.6526 34.5126 13.2561 34.3669 13.3123C34.2885 13.3416 33.9531 13.8694 33.9207 13.8763C33.9134 13.8778 33.9061 13.8793 33.8989 13.8808C34.2687 14.4371 34.0737 14.4713 33.8564 14.4919C33.6517 14.5002 33.3251 14.38 33.0231 14.1664C33.0132 14.1514 33.1821 13.4729 33.1559 13.4458C32.7604 13.0431 32.3306 13.8341 31.8555 14.2668C31.3672 14.6983 31.1291 14.4908 31.0529 13.2667C30.7168 13.3697 30.3488 12.7847 30.1283 12.4323C29.9057 12.0795 29.6994 13.4252 29.6738 13.449C28.8367 14.2144 28.5475 13.3995 27.7781 13.1997C27.4331 13.1045 26.6891 13.2333 26.2758 13.3474C25.9587 13.4403 25.7976 13.107 25.492 13.2868C25.4507 13.3108 25.4415 13.9177 25.4277 13.94C25.0485 14.6367 25.3201 13.173 25.274 12.904C25.1071 11.9263 24.9851 11.4029 24.5396 11.8237C24.4353 11.9199 24.0038 14.0263 23.8221 14.1386C23.5847 14.2807 23.7231 13.5242 23.4717 13.6925C23.4502 13.7063 23.4226 14.1769 23.2767 14.1463C22.6046 14.0108 21.8762 13.6914 21.1609 13.6988C21.0636 13.6981 21.1462 14.4516 21.0054 14.4629C20.3446 14.515 19.6236 14.4509 18.9962 14.0714C18.8419 13.9756 18.9653 13.4572 18.9381 13.3003C18.7689 12.3508 18.4068 13.7028 18.3568 13.7268C17.1475 14.3316 16.2867 13.0616 15.0609 13.6115C14.9961 13.644 14.4441 15.0929 14.2537 13.8304C14.2409 13.7464 14.052 12.4548 13.8305 13.3281C13.8169 13.3827 13.9371 14.0481 13.6974 13.9741C13.4581 13.9003 13.0617 14.3323 12.7386 13.5973C12.6379 13.3658 12.4134 12.0777 12.0783 13.0931C12.0538 13.1639 11.5347 15.4654 11.3828 13.8675C11.3597 13.6045 11.4187 11.9174 11.0234 12.7759C10.9483 12.9424 11.0724 13.321 10.879 13.5528C10.5799 13.9101 10.2253 13.4525 9.84264 14.1995C9.77719 14.3317 9.49783 15.4739 9.29942 14.6022C9.2682 14.4657 9.33634 13.9029 9.22673 13.8387C8.72892 13.5309 8.11806 13.9035 7.61542 13.5122C7.42962 13.3748 7.52394 12.4641 7.32006 12.2196C7.1133 11.9752 6.71291 11.7408 6.51844 12.1579C6.32041 12.5751 6.55435 14.0258 6.23482 14.1435C5.56163 14.3997 4.92841 14.3205 4.3142 14.173C4.04836 14.0975 3.69216 14.012 3.63472 13.9282C3.6365 13.9047 3.65632 13.8856 3.86713 13.8338C3.99585 13.8067 4.16805 13.7805 4.58451 13.6612C4.79872 13.5962 5.07448 13.5148 5.53766 13.3039C5.99823 13.0645 6.68986 12.8134 7.78553 11.6357C8.05771 11.3259 8.32507 10.9844 8.6211 10.466C8.99253 9.8139 9.32478 8.95249 9.44797 7.98728C9.73758 6.00884 8.93936 4.05936 8.20029 3.10534C6.64386 1.17786 5.8299 1.12571 5.34248 0.84915C4.40935 0.485475 4.17454 0.506797 4.1662 0.496064C3.65044 0.436304 3.86914 0.510597 3.91314 0.524707C4.03472 0.55407 3.95062 0.0262079 4.19254 0.0354199C4.38945 0.0409575 4.62324 0.0215507 4.98413 0.00912333C6.19477 -0.0295253 7.6367 0.0161319 8.34718 0.93362C9.08971 1.89892 7.97709 2.46038 8.56899 2.88372C8.85013 3.08588 9.36372 1.44512 9.4446 1.40085C10.2271 0.946604 10.6349 1.75054 11.3006 1.60554C11.4389 1.57558 11.3978 0.880301 11.5149 0.862399C11.9159 0.795311 12.2773 1.15265 12.6497 1.1484C12.8167 1.14493 12.8596 0.623336 13.0041 0.684532C13.3525 0.825372 13.6383 1.0889 13.9125 1.6246C13.9372 1.67339 13.6303 2.28492 13.8881 2.34762C14.3082 2.44774 14.7558 3.00464 15.3145 2.58683C15.4794 2.46066 15.6727 1.28215 15.8509 2.14498C15.8885 2.32531 15.582 3.72843 16.1329 2.56129C16.2245 2.36726 17.0849 0.812187 17.2068 1.92288C17.2388 2.21515 17.2468 3.40486 17.4455 3.25011C17.473 3.22474 17.4836 2.57677 17.633 2.53747C18.1583 2.41007 18.658 2.56012 19.1817 2.43999C19.3226 2.40677 19.2304 1.72009 19.4359 1.69129C19.9884 1.61229 20.6016 1.86891 21.055 2.13859C21.065 2.14388 21.075 2.14918 21.0849 2.15449C21.283 2.26184 21.0593 2.785 21.066 2.84643C21.1694 3.8448 21.5068 2.56697 21.6024 2.50376C22.1909 2.12807 22.5079 2.80233 23.0442 2.7285C23.1932 2.71018 23.1997 2.07569 23.2375 2.02555C23.6301 1.54024 23.2135 2.60911 23.379 2.76442C23.8416 3.2036 24.4467 3.27148 25.027 3.32076C25.2409 3.33834 25.1678 2.57668 25.3614 2.6018C26.5133 2.73752 27.7564 3.16772 28.7662 3.97453C28.9546 4.12734 28.6208 4.59932 28.62 4.73551C28.5957 5.68073 29.4768 4.72568 29.634 4.66701C30.3123 4.38067 30.2991 4.91878 30.7438 5.02916C32.9772 5.56772 35.1145 7.46895 36.4071 8.92084C37.0075 9.57532 37.487 10.2184 37.9241 10.8436C38.5867 11.8556 39.1978 12.8006 40.1193 13.6953C40.2083 13.7829 40.6795 13.1935 40.7637 13.2631C41.8275 14.1868 42.5081 15.4309 43.5679 16.3986C43.6543 16.4795 44.0961 15.9041 44.2539 16.02C44.5807 16.2539 44.8584 16.6652 44.9235 17.1148C44.9556 17.3324 44.321 17.5028 44.3622 17.7132C44.4564 18.2036 44.7049 18.6115 45.0691 18.909C45.2261 19.0358 45.6262 18.3665 45.7861 18.5664C46.8825 19.9153 47.9782 21.2774 48.1367 23.2473C48.1477 23.3829 46.9696 24.261 47.3397 24.3189C47.6931 24.1164 48.0965 23.8588 48.4679 23.6325C49.0636 24.4007 49.5471 25.2329 49.9753 26.0864C50.6877 27.4968 51.2423 28.9704 51.8924 30.4167C51.9371 30.516 52.5534 30.0067 52.6441 30.1987C53.1708 31.3151 53.867 32.3473 53.6304 33.8263C53.6072 33.9719 52.315 34.4182 52.6414 34.6829C52.7003 34.7275 53.0692 35.179 53.3968 35.211C53.4457 35.214 54.0073 34.8942 54.0881 35.058C54.5511 36.0264 54.778 37.1649 54.7044 38.3528C54.6918 38.5471 53.9852 38.5407 53.9698 38.6784C53.8576 39.6308 54.5949 40.5095 54.134 41.6274C53.814 42.369 52.6134 42.2612 51.4959 42.6963C51.3388 42.7481 51.3374 43.1444 50.6639 43.1856C48.9753 43.2763 47.1209 43.245 45.3222 43.3679C44.9357 43.4052 45.3541 43.4583 44.4158 43.437C44.3534 43.4415 44.0402 43.3994 43.7208 43.3998C43.5005 43.405 42.8198 43.472 42.5379 43.4792C42.2566 43.4918 42.8246 43.4074 42.4889 43.3882C42.1484 43.3686 41.3834 43.5096 41.2737 43.4031ZM29.093 10.86C28.914 10.1829 28.619 12.5577 28.9475 12.018C28.9636 11.9891 29.1023 10.8933 29.093 10.86ZM45.6328 30.7128C46.6213 30.2171 45.0535 30.2635 44.288 30.6206C43.5214 30.9692 45.3324 30.8597 45.6328 30.7128ZM46.8795 34.0492C47.6514 33.5421 44.2794 33.9241 45.0164 34.2629C45.0582 34.2828 46.8348 34.0789 46.8795 34.0492ZM50.9734 41.3658C50.9429 41.3736 50.9561 41.6169 50.9877 41.6171C51.7602 41.6171 51.7303 41.1117 50.9734 41.3658ZM48.5562 37.508C48.955 37.2493 48.3411 37.0564 47.8425 37.3763C47.4424 37.6384 48.061 37.8345 48.5562 37.508ZM15.7847 7.44436C15.7818 7.40857 15.6317 7.37147 15.6281 7.57302C15.6169 8.22214 15.8329 8.04603 15.7847 7.44436ZM50.1327 43.3091C49.881 42.2186 52.597 41.2931 52.4601 42.0482C52.4464 42.2036 51.5169 42.0059 51.3248 42.2518C51.0021 42.7814 52.7152 42.3415 51.9922 43.0115C51.8756 43.1751 50.1496 43.4038 50.1284 43.3089C50.1298 43.309 50.1312 43.309 50.1327 43.3091ZM29.263 7.98727C29.2615 7.95521 29.0561 7.90273 29.0476 7.93342C28.8543 8.67655 29.2646 8.78228 29.263 7.98727ZM6.94305 5.80838C6.9288 5.7408 6.4502 5.67882 6.43795 5.74116C6.19553 6.98393 7.15305 7.11282 6.94305 5.80838ZM42.555 13.295C43.328 13.0804 43.5701 13.2944 42.8556 13.9633C42.7724 13.7328 42.6489 13.5245 42.555 13.295Z" fill="white"/>
</svg>
